<svg xmlns="http://www.w3.org/2000/svg" width="20" height="20" viewBox="0 0 20 20" fill="currentColor">
<path d="M4.75 9C4.75 8.58579 5.08579 8.25 5.5 8.25H14.5C14.9142 8.25 15.25 8.58579 15.25 9C15.25 9.41421 14.9142 9.75 14.5 9.75H5.5C5.08579 9.75 4.75 9.41421 4.75 9Z" fill="currentColor"></path>
<path d="M14 14.25C13.5858 14.25 13.25 14.5858 13.25 15C13.25 15.4142 13.5858 15.75 14 15.75H15C15.4142 15.75 15.75 15.4142 15.75 15C15.75 14.5858 15.4142 14.25 15 14.25H14Z" fill="currentColor"></path>
<path fill-rule="evenodd" clip-rule="evenodd" d="M5.5 0.25C5.91421 0.25 6.25 0.585786 6.25 1V1.75H13.75V1C13.75 0.585786 14.0858 0.25 14.5 0.25C14.9142 0.25 15.25 0.585786 15.25 1V1.75H16C18.0711 1.75 19.75 3.42893 19.75 5.5V16C19.75 18.0711 18.0711 19.75 16 19.75H4C1.92893 19.75 0.25 18.0711 0.25 16V5.5C0.25 3.42893 1.92893 1.75 4 1.75H4.75V1C4.75 0.585786 5.08579 0.25 5.5 0.25ZM4.75 3.25H4C2.75736 3.25 1.75 4.25736 1.75 5.5V16C1.75 17.2426 2.75736 18.25 4 18.25H16C17.2426 18.25 18.25 17.2426 18.25 16V5.5C18.25 4.25736 17.2426 3.25 16 3.25H15.25V4C15.25 4.41421 14.9142 4.75 14.5 4.75C14.0858 4.75 13.75 4.41421 13.75 4V3.25H6.25V4C6.25 4.41421 5.91421 4.75 5.5 4.75C5.08579 4.75 4.75 4.41421 4.75 4V3.25Z" fill="currentColor"></path>
</svg>