<svg xmlns="http://www.w3.org/2000/svg" width="24" height="16" viewBox="0 0 24 16" fill="currentColor">
<path fill-rule="evenodd" clip-rule="evenodd" d="M14.7326 1.38165C13.2231 -0.127342 10.7762 -0.12722 9.26699 1.38203C7.75762 2.89141 7.75762 5.3386 9.26699 6.84797C10.7764 8.35734 13.2236 8.35734 14.7329 6.84797C16.2423 5.33859 16.2419 2.89103 14.7326 1.38165ZM13.6723 2.44269C12.7487 1.5191 11.2512 1.5191 10.3277 2.44269C10.2122 2.55814 10.1112 2.68255 10.0246 2.81369C9.4185 3.73168 9.51952 4.97917 10.3277 5.78731C10.4431 5.90276 10.5675 6.00378 10.6987 6.09036C11.6166 6.69647 12.8641 6.59545 13.6723 5.78731C14.4804 4.97916 14.5814 3.73167 13.9753 2.81369C13.8887 2.68255 13.7877 2.55814 13.6723 2.44269Z" fill="currentColor"></path>
<path fill-rule="evenodd" clip-rule="evenodd" d="M21.322 4.99233C20.239 3.91027 18.4839 3.91055 17.4012 4.99319C16.3183 6.07612 16.3183 7.83188 17.4012 8.9148C18.4841 9.99773 20.2399 9.99773 21.3228 8.9148C22.4057 7.83188 22.4057 6.07612 21.3228 4.99319L21.322 4.99233ZM20.2622 6.05385C19.765 5.55672 18.959 5.55671 18.4619 6.05385C17.9647 6.55099 17.9647 7.357 18.4619 7.85414C18.959 8.35128 19.765 8.35128 20.2622 7.85414C20.7593 7.35701 20.7593 6.55099 20.2622 6.05385Z" fill="currentColor"></path>
<path fill-rule="evenodd" clip-rule="evenodd" d="M6.59795 4.99233C5.51496 3.91027 3.75984 3.91055 2.6772 4.99319C1.59427 6.07612 1.59427 7.83188 2.6772 8.9148C3.76012 9.99773 5.51588 9.99773 6.59881 8.9148C7.68173 7.83188 7.68173 6.07612 6.59881 4.99319L6.59795 4.99233ZM5.53815 6.05385C5.04101 5.55672 4.235 5.55671 3.73786 6.05385C3.24072 6.55099 3.24072 7.357 3.73786 7.85414C4.235 8.35128 5.04101 8.35128 5.53815 7.85414C6.03529 7.35701 6.03529 6.55099 5.53815 6.05385Z" fill="currentColor"></path>
<path d="M19.699 10.654C19.2848 10.654 18.949 10.9898 18.949 11.404C18.949 11.8182 19.2848 12.154 19.699 12.154H20.5C21.4668 12.154 22.25 12.9372 22.25 13.904V15C22.25 15.4142 22.5858 15.75 23 15.75C23.4142 15.75 23.75 15.4142 23.75 15V13.904C23.75 12.1088 22.2952 10.654 20.5 10.654H19.699Z" fill="currentColor"></path>
<path d="M3.5 12.154C2.53321 12.154 1.75 12.9372 1.75 13.904V15C1.75 15.4142 1.41421 15.75 1 15.75C0.585786 15.75 0.25 15.4142 0.25 15V13.904C0.25 12.1088 1.70479 10.654 3.5 10.654H4.301C4.71521 10.654 5.051 10.9898 5.051 11.404C5.051 11.8182 4.71521 12.154 4.301 12.154H3.5Z" fill="currentColor"></path>
<path d="M10.16 9.14899C7.81279 9.14899 5.91 11.0518 5.91 13.399V15C5.91 15.4142 6.24579 15.75 6.66 15.75C7.07422 15.75 7.41 15.4142 7.41 15V13.399C7.41 11.8802 8.64122 10.649 10.16 10.649H13.839C15.3578 10.649 16.589 11.8802 16.589 13.399V15C16.589 15.4142 16.9248 15.75 17.339 15.75C17.7532 15.75 18.089 15.4142 18.089 15V13.399C18.089 11.0518 16.1862 9.14899 13.839 9.14899H10.16Z" fill="currentColor"></path>
</svg>