<svg xmlns="http://www.w3.org/2000/svg" width="20" height="14" viewBox="0 0 20 14" fill="currentColor">
  <path d="M1.5 0.25C1.08579 0.25 0.75 0.585786 0.75 1C0.75 1.41421 1.08579 1.75 1.5 1.75H2.5C2.91421 1.75 3.25 1.41421 3.25 1C3.25 0.585786 2.91421 0.25 2.5 0.25H1.5Z" fill="currentColor"></path>
<path d="M6.5 0.25C6.08579 0.25 5.75 0.585786 5.75 1C5.75 1.41421 6.08579 1.75 6.5 1.75H18.5C18.9142 1.75 19.25 1.41421 19.25 1C19.25 0.585786 18.9142 0.25 18.5 0.25H6.5Z" fill="currentColor"></path>
<path d="M0.75 7C0.75 6.58579 1.08579 6.25 1.5 6.25H2.5C2.91421 6.25 3.25 6.58579 3.25 7C3.25 7.41421 2.91421 7.75 2.5 7.75H1.5C1.08579 7.75 0.75 7.41421 0.75 7Z" fill="currentColor"></path>
<path d="M1.5 12.25C1.08579 12.25 0.75 12.5858 0.75 13C0.75 13.4142 1.08579 13.75 1.5 13.75H2.5C2.91421 13.75 3.25 13.4142 3.25 13C3.25 12.5858 2.91421 12.25 2.5 12.25H1.5Z" fill="currentColor"></path>
<path d="M5.75 7C5.75 6.58579 6.08579 6.25 6.5 6.25H18.5C18.9142 6.25 19.25 6.58579 19.25 7C19.25 7.41421 18.9142 7.75 18.5 7.75H6.5C6.08579 7.75 5.75 7.41421 5.75 7Z" fill="currentColor"></path>
<path d="M6.5 12.25C6.08579 12.25 5.75 12.5858 5.75 13C5.75 13.4142 6.08579 13.75 6.5 13.75H18.5C18.9142 13.75 19.25 13.4142 19.25 13C19.25 12.5858 18.9142 12.25 18.5 12.25H6.5Z" fill="currentColor"></path>
</svg>